<svg width="32" height="32" viewBox="0 0 32 32" fill="none" xmlns="http://www.w3.org/2000/svg">
<path d="M5 1.19678C2.79086 1.19678 1 2.96407 1 5.14415V9.09151C1 9.63655 1.44771 10.0784 2 10.0784C2.55228 10.0784 3 9.63655 3 9.09151V5.14415C3 4.05411 3.89543 3.17046 5 3.17046H9C9.5523 3.17046 10 2.72864 10 2.18362C10 1.6386 9.5523 1.19678 9 1.19678H5Z" fill="#0075EB"/>
<path d="M23 1.19678C22.4477 1.19678 22 1.6386 22 2.18362C22 2.72864 22.4477 3.17046 23 3.17046H27C28.1045 3.17046 29 4.05411 29 5.14415V9.09151C29 9.63655 29.4477 10.0784 30 10.0784C30.5523 10.0784 31 9.63655 31 9.09151V5.14415C31 2.96407 29.2092 1.19678 27 1.19678H23Z" fill="#0075EB"/>
<path d="M2 21.9214C2.55228 21.9214 3 22.3632 3 22.9082V26.8556C3 27.9456 3.89543 28.8293 5 28.8293H9C9.5523 28.8293 10 29.2711 10 29.8161C10 30.3612 9.5523 30.803 9 30.803H5C2.79086 30.803 1 29.0357 1 26.8556V22.9082C1 22.3632 1.44771 21.9214 2 21.9214Z" fill="#0075EB"/>
<path d="M31 22.9082C31 22.3632 30.5523 21.9214 30 21.9214C29.4477 21.9214 29 22.3632 29 22.9082V26.8556C29 27.9456 28.1045 28.8293 27 28.8293H23C22.4477 28.8293 22 29.2711 22 29.8161C22 30.3612 22.4477 30.803 23 30.803H27C29.2092 30.803 31 29.0357 31 26.8556V22.9082Z" fill="#0075EB"/>
<path d="M16 4.65186C16.4669 4.65186 16.8716 4.97064 16.9751 5.41987L18.362 11.4392C18.6179 12.5497 19.4968 13.417 20.6222 13.6696L26.7218 15.0383C27.177 15.1404 27.5 15.5398 27.5 16.0005C27.5 16.4612 27.177 16.8607 26.7218 16.9628L20.6222 18.3315C19.4968 18.584 18.6179 19.4513 18.362 20.5619L16.9751 26.5812C16.8716 27.0304 16.4669 27.3492 16 27.3492C15.5331 27.3492 15.1284 27.0304 15.0249 26.5812L13.6379 20.5619C13.382 19.4513 12.5032 18.584 11.3778 18.3315L5.27825 16.9628C4.82304 16.8607 4.5 16.4612 4.5 16.0005C4.5 15.5398 4.82304 15.1404 5.27825 15.0383C7.92075 14.4453 10.0133 13.2869 12.0091 14.3847C12.5657 14.6908 12.4426 15.4547 11.8212 15.5941L10.01 16.0005L11.8212 16.407C13.6969 16.8279 15.1616 18.2733 15.5882 20.1243L16 21.9117L16.4118 20.1243C16.8384 18.2733 18.303 16.8279 20.1787 16.407L21.99 16.0005L20.1787 15.5941C18.303 15.1732 16.8384 13.7278 16.4118 11.8768L16 10.0894L15.5882 11.8768C15.4468 12.4899 14.6729 12.6115 14.3626 12.0622C13.2502 10.0926 14.424 8.0276 15.0249 5.41987C15.1284 4.97064 15.5331 4.65186 16 4.65186Z" fill="#0075EB"/>
</svg>
